<svg xmlns="http://www.w3.org/2000/svg" width="200" height="200" viewBox="0 0 200 200"><path fill="#fff" d="M17.3 68.4v6.1H27v3.2h-9.7v7.6h-3.7v-20h14.6v3.1zm22.8 1.5v3.4h-.9c-2.7 0-4.4 1.6-4.4 4.7v7.4h-3.6V70h3.4v2.3c1.1-1.6 2.9-2.4 5.5-2.4zm17.2 8.9h-12c.4 2.3 2.3 3.7 5 3.7a5.2 5.2 0 0 0 4.1-1.7l1.9 2.3c-1.3 1.6-3.5 2.4-6.1 2.4-5.2 0-8.5-3.3-8.5-7.8a7.6 7.6 0 0 1 7.9-7.8 7.5 7.5 0 0 1 7.8 7.9 3.4 3.4 0 0 1-.1 1zm-12-2.3H54a4.4 4.4 0 0 0-8.7 0zm29.9 2.3H63.1c.5 2.3 2.3 3.7 5 3.7a5.4 5.4 0 0 0 4.2-1.7l1.9 2.3a7.8 7.8 0 0 1-6.2 2.4c-5.1 0-8.4-3.3-8.4-7.8a7.5 7.5 0 0 1 7.9-7.8c4.5 0 7.7 3.1 7.7 7.9zm-12.1-2.3h8.7a4.2 4.2 0 0 0-4.3-3.8 4.3 4.3 0 0 0-4.4 3.8zm30.6-12.4v21.2h-3.5v-1.9a6.4 6.4 0 0 1-5 2.1 7.4 7.4 0 0 1-7.8-7.8 7.4 7.4 0 0 1 7.8-7.8 6.3 6.3 0 0 1 4.9 2v-7.8zm-3.6 13.6a4.4 4.4 0 0 0-4.5-4.8 4.8 4.8 0 0 0 0 9.6 4.4 4.4 0 0 0 4.5-4.8zm7 0c0-4.6 3.5-7.8 8.2-7.8s8.1 3.2 8.1 7.8-3.4 7.8-8.1 7.8-8.2-3.2-8.2-7.8zm12.7 0a4.4 4.4 0 0 0-4.5-4.8 4.8 4.8 0 0 0 0 9.6 4.4 4.4 0 0 0 4.5-4.8zm32.7-1.1v8.7h-3.6V77c0-2.7-1.2-4-3.4-4s-4 1.5-4 4.6v7.7h-3.6V77c0-2.7-1.3-4-3.4-4s-4 1.5-4 4.6v7.7h-3.6V70h3.4v2a6.1 6.1 0 0 1 5-2.1 5.8 5.8 0 0 1 5.2 2.5 7 7 0 0 1 5.7-2.5c3.7 0 6.3 2.1 6.3 6.7zM13.6 99.7h8.8c6.5 0 10.9 4 10.9 10s-4.4 10.1-10.9 10.1h-8.8zm8.6 16.9c4.5 0 7.4-2.7 7.4-6.9s-2.9-6.8-7.4-6.8h-4.9v13.7zm13.5-4.5c0-4.6 3.4-7.8 8.1-7.8s8.2 3.2 8.2 7.8-3.4 7.9-8.2 7.9a7.7 7.7 0 0 1-8.1-7.9zm12.7 0a4.5 4.5 0 0 0-4.6-4.8 4.8 4.8 0 0 0 0 9.6 4.5 4.5 0 0 0 4.6-4.8zm22.2-7.6v13c0 5.5-2.9 8-8.2 8a12.6 12.6 0 0 1-7.5-2.1l1.6-2.7a9.4 9.4 0 0 0 5.7 1.8c3.4 0 4.8-1.5 4.8-4.6v-.9a6.5 6.5 0 0 1-5.1 2.1c-4.4 0-7.7-3-7.7-7.4s3.3-7.4 7.7-7.4a6.5 6.5 0 0 1 5.3 2.2v-2zm-3.5 7.2a4.3 4.3 0 0 0-4.6-4.4c-2.8 0-4.7 1.8-4.7 4.4s1.9 4.3 4.7 4.3 4.6-1.7 4.6-4.3zm29.6 8.1l-4.1-5.9h-5.3v5.9h-3.7V99.7h8.3c5.2 0 8.5 2.7 8.5 7.1a6.4 6.4 0 0 1-4.3 6.4l4.7 6.6zm-5-16.9h-4.4v8h4.4c3.3 0 5-1.5 5-4.1s-1.7-3.9-5-3.9zm26.9 10.4h-12c.4 2.2 2.2 3.6 4.9 3.6a5.7 5.7 0 0 0 4.2-1.6l1.9 2.2a7.9 7.9 0 0 1-6.2 2.5c-5.1 0-8.4-3.3-8.4-7.9a7.6 7.6 0 0 1 7.9-7.8c4.5 0 7.7 3.1 7.7 7.9zm-12.1-2.4h8.7a4.2 4.2 0 0 0-4.3-3.7 4.3 4.3 0 0 0-4.4 3.7zm13.8 7.4l1.4-2.8a10 10 0 0 0 5.3 1.5c2.3 0 3.2-.6 3.2-1.6 0-3-9.4-.2-9.4-6.3 0-2.9 2.6-4.8 6.7-4.8a12.7 12.7 0 0 1 5.8 1.3l-1.4 2.7a9 9 0 0 0-4.4-1.1c-2.2 0-3.2.7-3.2 1.7 0 3.1 9.4.3 9.4 6.3 0 2.9-2.6 4.8-6.9 4.8a13.2 13.2 0 0 1-6.5-1.7zm15.3-6.2c0-4.6 3.4-7.8 8.3-7.8 3 0 5.3 1.2 6.5 3.5l-2.7 1.6a4.6 4.6 0 0 0-3.9-2.1 4.5 4.5 0 0 0-4.6 4.8 4.5 4.5 0 0 0 4.6 4.8 4.6 4.6 0 0 0 3.9-2.1l2.7 1.6a6.9 6.9 0 0 1-6.5 3.6c-4.9 0-8.3-3.3-8.3-7.9zm32.7-7.6v15.3h-3.4v-2a6.1 6.1 0 0 1-4.9 2.2c-3.9 0-6.6-2.2-6.6-6.8v-8.7h3.6v8.2c0 2.8 1.3 4.1 3.6 4.1s4.2-1.5 4.2-4.6v-7.7zm19.1 8.8h-12c.4 2.2 2.3 3.6 4.9 3.6a5.5 5.5 0 0 0 4.2-1.6l1.9 2.2a7.8 7.8 0 0 1-6.1 2.5c-5.2 0-8.5-3.3-8.5-7.9a7.6 7.6 0 0 1 7.9-7.8 7.5 7.5 0 0 1 7.8 7.9c0 .3-.1.7-.1 1.1zm-12.1-2.4h8.7a4 4 0 0 0-4.3-3.7 4.3 4.3 0 0 0-4.4 3.7z"/><g fill="#e297ba"><path d="M169.3 69.5s-3.4-1.4-7 2.9a11 11 0 0 1-4.2 3.1c-2.3 1-5.1 2.9-4.4 5.6s5.6 5.5 8.2 6.5a16.8 16.8 0 0 0 3.2.9c2.5.4 7.5 1.1 10.1.2s4.3-4.5 1.6-7.8a12.1 12.1 0 0 1-2.7-6 6.6 6.6 0 0 0-4.8-5.4z"/><ellipse cx="180.9" cy="73.8" rx="5" ry="3.5" transform="rotate(-63.6 180.772 73.79)"/><ellipse cx="175.7" cy="64.6" rx="5" ry="3.5" transform="rotate(-67.5 175.582 64.608)"/><ellipse cx="165.3" cy="62.2" rx="5" ry="3.5" transform="rotate(-80 165.337 62.17)"/><ellipse cx="156.3" cy="68.2" rx="3.5" ry="4.9" transform="rotate(-5.9 156.022 68.356)"/></g></svg>